<?xml version="1.0" encoding="UTF-8" standalone="no"?>
<!DOCTYPE svg PUBLIC "-//W3C//DTD SVG 1.1//EN"
 "http://www.w3.org/Graphics/SVG/1.1/DTD/svg11.dtd">
<!-- Generated by graphviz version 2.26.3 (20100126.1600)
 -->
<!-- Title: G Pages: 1 -->
<svg width="556pt" height="206pt"
 viewBox="0.00 0.00 556.00 206.00" xmlns="http://www.w3.org/2000/svg" xmlns:xlink="http://www.w3.org/1999/xlink">
<g id="graph1" class="graph" transform="scale(1 1) rotate(0) translate(4 202)">
<title>G</title>
<polygon fill="white" stroke="white" points="-4,5 -4,-202 553,-202 553,5 -4,5"/>
<g id="graph2" class="cluster"><title>cluster_Global</title>
<polyline fill="none" stroke="gray" points="410,-8 528,-8 "/>
<path fill="none" stroke="gray" d="M528,-8C534,-8 540,-14 540,-20"/>
<polyline fill="none" stroke="gray" points="540,-20 540,-178 "/>
<path fill="none" stroke="gray" d="M540,-178C540,-184 534,-190 528,-190"/>
<polyline fill="none" stroke="gray" points="528,-190 410,-190 "/>
<path fill="none" stroke="gray" d="M410,-190C404,-190 398,-184 398,-178"/>
<polyline fill="none" stroke="gray" points="398,-178 398,-20 "/>
<path fill="none" stroke="gray" d="M398,-20C398,-14 404,-8 410,-8"/>
<text text-anchor="middle" x="469" y="-176.1" font-family="Times Roman,serif" font-size="11.00" fill="gray">Global</text>
</g>
<!-- \\DateRange -->
<g id="node2" class="node"><title>\\DateRange</title>
<polygon fill="none" stroke="black" points="507,-160 431,-160 431,-124 507,-124 507,-160"/>
<text text-anchor="middle" x="469" y="-139.1" font-family="Courier,monospace" font-size="11.00">DateRange</text>
</g>
<!-- \\DateRangeTest -->
<g id="node3" class="node"><title>\\DateRangeTest</title>
<polygon fill="none" stroke="black" points="521,-106 417,-106 417,-70 521,-70 521,-106"/>
<text text-anchor="middle" x="469" y="-85.1" font-family="Courier,monospace" font-size="11.00">DateRangeTest</text>
</g>
<!-- \\CakeTestCase -->
<g id="node6" class="node"><title>\\CakeTestCase</title>
<ellipse fill="none" stroke="black" cx="167" cy="-88" rx="82.0244" ry="18.3848"/>
<text text-anchor="middle" x="167" y="-84.4" font-family="Times Roman,serif" font-size="14.00" fill="gray">\CakeTestCase</text>
</g>
<!-- \\DateRangeTest&#45;&gt;\\CakeTestCase -->
<g id="edge3" class="edge"><title>\\DateRangeTest&#45;&gt;\\CakeTestCase</title>
<path fill="none" stroke="black" d="M416.74,-88C373.454,-88 310.889,-88 259.211,-88"/>
<polygon fill="none" stroke="black" points="259.029,-84.5001 249.029,-88 259.029,-91.5001 259.029,-84.5001"/>
</g>
<!-- \\AllDateRangeTest -->
<g id="node4" class="node"><title>\\AllDateRangeTest</title>
<polygon fill="none" stroke="black" points="531,-52 407,-52 407,-16 531,-16 531,-52"/>
<text text-anchor="middle" x="469" y="-31.1" font-family="Courier,monospace" font-size="11.00">AllDateRangeTest</text>
</g>
<!-- \\PHPUnit_Framework_TestSuite -->
<g id="node8" class="node"><title>\\PHPUnit_Framework_TestSuite</title>
<ellipse fill="none" stroke="black" cx="167" cy="-34" rx="166.877" ry="18.3848"/>
<text text-anchor="middle" x="167" y="-30.4" font-family="Times Roman,serif" font-size="14.00" fill="gray">\PHPUnit_Framework_TestSuite</text>
</g>
<!-- \\AllDateRangeTest&#45;&gt;\\PHPUnit_Framework_TestSuite -->
<g id="edge5" class="edge"><title>\\AllDateRangeTest&#45;&gt;\\PHPUnit_Framework_TestSuite</title>
<path fill="none" stroke="black" d="M406.425,-34C387.847,-34 366.512,-34 344.397,-34"/>
<polygon fill="none" stroke="black" points="344.188,-30.5001 334.188,-34 344.188,-37.5001 344.188,-30.5001"/>
</g>
</g>
</svg>
